# xmcd
#
# Track frame offsets: 
#        150
#        19739
#        42481
#        58395
#        76715
#        96543
#        122758
#        144975
#        166618
#        193885
#        226779
#
# Disc length: 3564 seconds
#
# Revision: 0
# Processed by: cddbd v1.5.2PL0 Copyright (c) Steve Scherf et al.
# Submitted via: ExactAudioCopy v0.95a3
#
DISCID=8e0dea0b
DTITLE=Wes Jeans - Forest Of The Pine
DYEAR=2006
DGENRE=Blues
TTITLE0=Forest Of The Pine
TTITLE1=Move On
TTITLE2=Comin Home
TTITLE3=Jumpin At Shadows
TTITLE4=Dallas
TTITLE5=Somebody
TTITLE6=Here By Me
TTITLE7=Let Me Know
TTITLE8=Back To Bed
TTITLE9=Boomerang Song
TTITLE10=Champagne and Reefer
EXTD=
EXTT0=
EXTT1=
EXTT2=
EXTT3=
EXTT4=
EXTT5=
EXTT6=
EXTT7=
EXTT8=
EXTT9=
EXTT10=
PLAYORDER=
